<svg xmlns="http://www.w3.org/2000/svg" width="36" height="36" viewBox="0 -5.5 36 36" fill="none">
  <path fill="url(#a)" d="M7.05391 17.5532c1.13727 0 1.70832-.649 2.29389-1.9641l2.2044-4.9161-3.67316-8.22905C6.95229.363673 4.51806-.568696 2.43952.35883.363413 1.28636-.568176 3.72505.358573 5.8029L5.21009 16.6814c.39684.5739 1.09129.8718 1.8414.8718h.00242Z"/>
  <path fill="url(#b)" d="M28.3765 17.5532c-1.1373 0-1.7083-.6491-2.2939-1.9641l-2.2044-4.9161 3.6707-8.22907c.9268-2.077848 3.361-3.010217 5.4395-2.082691 2.0762.927531 3.0077 3.363791 2.081 5.444071L30.2179 16.6838c-.3969.5739-1.0913.8718-1.8414.8718v-.0024Z"/>
  <path fill="url(#c)" d="M28.3758 17.5556c-1.1373 0-1.7084-.6491-2.2939-1.9641L21.4917 5.35485c-.6848-1.5378-2.1971-2.44838-3.7796-2.44111-1.5801-.00727-3.0924.90331-3.7796 2.44111L9.34232 15.5915c-.58557 1.315-1.15662 1.9641-2.29389 1.9641-.75011 0-1.44457-.2955-1.8414-.8718.32666.7967 1.20018 3.0659 2.14628 5.0856.0363.0775.0726.1526.10889.2252v-.0024c.40409.5522 1.15178.8694 1.88496.8694 1.13724 0 1.70834-.649 2.29384-1.964 0 0 2.9206-6.5242 3.8934-8.7013.2637-.5909.8662-2.0125 2.1753-2.0125 1.309 0 1.8849 1.3634 2.1753 2.0125.9727 2.1747 3.8933 8.7013 3.8933 8.7013.5856 1.315 1.1566 1.964 2.2939 1.964.7332 0 1.4809-.3172 1.885-.8694v.0024c.0363-.0726.0725-.1477.1088-.2252.9461-2.0197 1.8197-4.2889 2.1463-5.0856-.3968.5739-1.0913.8718-1.8414.8718h.0049Z"/>
  <path fill="url(#d)" d="M27.9621 21.997c-.438.8791-.9122 1.5112-1.3986 1.9616-.7259.6394-1.6115 1.0027-2.6859 1.0414h-.0338c-1.1736-.0242-2.3351-.5376-3.1215-1.4409-.2492-.3028-.467-.6466-.6485-1.0244 0 0-1.2485-2.8407-2.3568-5.3448v.0048-.0048c-1.1106 2.5041-2.3568 5.3448-2.3568 5.3448-.1814.3778-.3968.7216-.6484 1.0244-.7864.9033-1.9503 1.4167-3.1215 1.4409h-.0338c-1.0744-.0387-1.96001-.4044-2.68592-1.0414-.48636-.4504-.96063-1.0825-1.3986-1.9616.4041.5498 1.15179.867 1.88496.867 1.13726 0 1.70836-.649 2.29386-1.964 0 0 2.9206-6.5242 3.8933-8.7013.2904-.649.8687-2.0125 2.1754-2.0125 1.3066 0 1.8849 1.3635 2.1753 2.0125.9727 2.1747 3.8933 8.7013 3.8933 8.7013.5856 1.315 1.1566 1.964 2.2939 1.964.7332 0 1.4809-.3172 1.8849-.867h-.0048Z"/>
  <defs>
    <radialGradient id="a" cx="0" cy="0" r="1" gradientTransform="matrix(9.99099 0 0 9.99936 1.71119 1.00786)" gradientUnits="userSpaceOnUse">
      <stop offset=".1" stop-color="#00BAE6"/>
      <stop offset=".78" stop-color="#0084E7"/>
    </radialGradient>
    <radialGradient id="b" cx="0" cy="0" r="1" gradientTransform="matrix(-9.99099 0 0 -9.99936 33.7216 1.00784)" gradientUnits="userSpaceOnUse">
      <stop offset=".14" stop-color="#788CF3"/>
      <stop offset=".46" stop-color="#587EEF"/>
      <stop offset="1" stop-color="#1A65E8"/>
    </radialGradient>
    <linearGradient id="c" x1="5.20945" x2="30.2196" y1="12.8889" y2="12.8889" gradientUnits="userSpaceOnUse">
      <stop stop-color="#788CF3"/>
      <stop offset=".25" stop-color="#57ABF6"/>
      <stop offset=".51" stop-color="#39CAFA"/>
      <stop offset=".86" stop-color="#39CAFA"/>
    </linearGradient>
    <linearGradient id="d" x1="7.46715" x2="27.9621" y1="17.5943" y2="17.5943" gradientUnits="userSpaceOnUse">
      <stop stop-color="#679BF5"/>
      <stop offset=".19" stop-color="#529DF4"/>
      <stop offset=".51" stop-color="#34A2F3"/>
      <stop offset=".86" stop-color="#4DAFF7"/>
    </linearGradient>
  </defs>
</svg>
